HIERARCHY
ROOT Hips
{
	OFFSET -3.958830 18.904000 13.208200
	CHANNELS 6 Xposition Yposition Zposition Zrotation Yrotation Xrotation 
	JOINT LHipJoint
	{
		OFFSET 0.000000 0.000000 0.000000
		CHANNELS 3 Zrotation Yrotation Xrotation
		JOINT LeftUpLeg
		{
			OFFSET 1.800000 -1.400000 0.085000
			CHANNELS 3 Zrotation Yrotation Xrotation
			JOINT LeftLeg
			{
				OFFSET 2.215000 -6.000000 0.000000
				CHANNELS 3 Zrotation Yrotation Xrotation
				JOINT LeftFoot
				{
					OFFSET 2.500000 -6.900000 0.000000
					CHANNELS 3 Zrotation Yrotation Xrotation
					JOINT LeftToeBase
					{
						OFFSET 0.200000 -0.500000 1.950000
						CHANNELS 3 Zrotation Yrotation Xrotation
						End Site
						{
							OFFSET 0.000000 0.000000 0.000000
						}
					}
				}
			}
		}
	}
	JOINT RHipJoint
	{
		OFFSET 0.000000 0.000000 0.000000
		CHANNELS 3 Zrotation Yrotation Xrotation
		JOINT RightUpLeg
		{
			OFFSET -1.800000 -1.400000 0.085000
			CHANNELS 3 Zrotation Yrotation Xrotation
			JOINT RightLeg
			{
				OFFSET -2.215000 -6.000000 0.000000
				CHANNELS 3 Zrotation Yrotation Xrotation
				JOINT RightFoot
				{
					OFFSET -2.500000 -6.900000 0.000000
					CHANNELS 3 Zrotation Yrotation Xrotation
					JOINT RightToeBase
					{
						OFFSET -0.200000 -0.500000 1.950000
						CHANNELS 3 Zrotation Yrotation Xrotation
						End Site
						{
							OFFSET 0.000000 0.000000 0.000000
						}
					}
				}
			}
		}
	}
	JOINT LowerBack
	{
		OFFSET 0.000000 0.000000 0.000000
		CHANNELS 3 Zrotation Yrotation Xrotation
		JOINT Spine
		{
			OFFSET -0.087000 1.940000 -0.288900
			CHANNELS 3 Zrotation Yrotation Xrotation
			JOINT Spine1
			{
				OFFSET 0.000000 1.950000 0.060000
				CHANNELS 3 Zrotation Yrotation Xrotation
				JOINT Neck
				{
					OFFSET 0.000000 0.000000 0.000000
					CHANNELS 3 Zrotation Yrotation Xrotation
					JOINT Neck1
					{
						OFFSET 0.000000 1.600000 0.340000
						CHANNELS 3 Zrotation Yrotation Xrotation
						JOINT Head
						{
							OFFSET 0.000000 1.667000 -0.240000
							CHANNELS 3 Zrotation Yrotation Xrotation
							End Site
							{
								OFFSET 0.000000 0.000000 0.000000
							}
						}
					}
				}
				JOINT LeftShoulder
				{
					OFFSET 0.000000 0.000000 0.000000
					CHANNELS 3 Zrotation Yrotation Xrotation
					JOINT LeftArm
					{
						OFFSET 2.700000 1.550000 -0.730000
						CHANNELS 3 Zrotation Yrotation Xrotation
						JOINT LeftForeArm
						{
							OFFSET 5.450000 0.000000 0.000000
							CHANNELS 3 Zrotation Yrotation Xrotation
							JOINT LeftHand
							{
								OFFSET 3.450000 0.000000 0.000000
								CHANNELS 3 Zrotation Yrotation Xrotation
								JOINT LeftHandIndex1
								{
									OFFSET 0.750000 0.000000 0.000000
									CHANNELS 3 Zrotation Yrotation Xrotation
									End Site
									{
										OFFSET 0.000000 0.000000 0.000000
									}
								}
							}
						}
					}
				}
				JOINT RightShoulder
				{
					OFFSET 0.000000 0.000000 0.000000
					CHANNELS 3 Zrotation Yrotation Xrotation
					JOINT RightArm
					{
						OFFSET -2.700000 1.550000 -0.730000
						CHANNELS 3 Zrotation Yrotation Xrotation
						JOINT RightForeArm
						{
							OFFSET -5.450000 0.000000 0.000000
							CHANNELS 3 Zrotation Yrotation Xrotation
							JOINT RightHand
							{
								OFFSET -3.450000 0.000000 0.000000
								CHANNELS 3 Zrotation Yrotation Xrotation
								JOINT RightHandIndex1
								{
									OFFSET -0.750000 0.000000 0.000000
									CHANNELS 3 Zrotation Yrotation Xrotation
									End Site
									{
										OFFSET 0.000000 0.000000 0.000000
									}
								}
							}
						}
					}
				}
			}
		}
	}
}
MOTION
Frames: 9
Frame Time: 0.016667
0.368490 16.559240 -0.721200 -10.711703 15.475266 -13.623416 -15.562213 13.511184 3.621168 14.410410 -2.512878 -28.603151 -0.664131 12.356177 50.898209 -0.247111 10.112747 1.032766 0.395790 -0.453460 0.616910 17.863997 -10.112396 2.650623 -11.537092 7.029775 -13.555834 13.218581 -14.633728 46.628182 -1.155354 -8.212447 1.782083 -0.067590 0.310070 0.111140 -2.695229 -3.276026 -8.232132 -0.636792 3.374007 40.868386 -2.018083 7.101715 14.933800 2.924091 -4.351984 -11.873098 -12.162246 2.384047 45.393648 2.739660 -2.697460 -19.984680 -6.955801 -14.324174 5.128641 -5.037030 -0.687885 -9.058255 107.041592 -39.579492 -57.945912 -3.677820 2.217829 1.186370 -0.003710 -0.139810 0.076980 0.883062 22.443860 7.385865 -6.355000 7.411172 -15.402607 -81.074749 46.872485 -38.532503 1.438558 -0.735127 -0.670710 0.537950 0.169780 -0.608990 
0.355480 16.554440 -0.733710 -10.381839 15.498044 -13.640862 -15.594666 13.589077 3.661717 14.130857 -2.600231 -28.781800 -0.561959 12.345981 51.117399 -0.242277 10.122357 1.016320 0.395380 -0.448740 0.612500 17.827562 -10.128731 2.563517 -11.577601 6.908678 -13.472668 11.698472 -13.993177 47.232787 -1.129986 -8.128142 1.799592 -0.069110 0.292910 0.114740 -2.594938 -3.436687 -8.192547 -1.761074 3.928432 41.217899 -1.421222 7.315557 15.178700 2.849387 -4.211712 -12.030313 -11.968277 2.454522 45.864750 2.707910 -2.500410 -20.101120 -6.499730 -14.492383 5.231860 -5.081246 -0.370456 -9.379847 106.821554 -38.832219 -56.990265 -3.669549 2.252907 1.192290 -0.012210 -0.131210 0.069550 0.571912 22.766728 7.594204 -5.976562 7.519186 -15.722241 -81.561559 45.452532 -38.229157 1.472012 -0.794170 -0.662950 0.521880 0.173410 -0.612300 
0.333600 16.535670 -0.753140 -9.915428 15.750760 -13.102500 -15.647997 13.595783 3.813796 14.199513 -2.807906 -29.729289 -1.332681 12.800716 51.205511 -0.198544 10.194272 0.968029 0.419400 -0.412010 0.619630 17.786462 -10.093492 2.432677 -11.942118 6.705235 -13.709292 10.078511 -13.242634 47.621093 -1.092664 -7.995560 1.822053 -0.061500 0.253760 0.131340 -2.451678 -3.644849 -8.181346 -3.274511 4.636066 41.294670 -0.506214 7.487446 15.282251 2.690849 -4.039183 -12.093978 -11.707111 2.550503 46.197479 2.590820 -2.194140 -19.887610 -6.009479 -14.490199 5.271117 -4.774358 -0.021704 -9.600121 106.701737 -37.700030 -55.427390 -3.652586 2.337191 1.174690 -0.024700 -0.112300 0.068590 0.383062 22.913245 7.698964 -6.040905 7.610663 -15.771137 -82.209734 44.331009 -38.059538 1.508234 -0.867615 -0.622830 0.473570 0.154510 -0.607170 
0.326400 16.508280 -0.774950 -9.723854 15.741317 -12.480332 -15.665346 13.532320 3.959660 14.286551 -3.009136 -30.839851 -1.819410 13.117310 51.496365 -0.151540 10.265780 0.910233 0.460010 -0.348980 0.631360 17.783331 -10.130637 2.300970 -12.178631 6.463930 -13.956874 8.227484 -12.331819 47.816403 -1.049285 -7.837384 1.842516 -0.042750 0.211570 0.175870 -2.418491 -3.612992 -8.167475 -3.616228 4.899934 41.211046 -0.375583 7.599142 15.507074 2.746535 -3.724173 -11.893113 -10.839561 2.366865 45.560064 1.671380 -1.656520 -19.892420 -5.474869 -14.095649 5.065969 -4.330989 -0.251181 -9.591992 107.126150 -36.714725 -54.564255 -3.653025 2.452285 1.133760 -0.021970 -0.090610 0.065880 -0.327925 22.384715 7.555519 -5.873780 8.033384 -15.713533 -82.535621 42.847279 -37.551784 1.540142 -0.983003 -0.555950 0.401160 0.133990 -0.594370 
0.322190 16.477920 -0.787260 -9.137601 15.676770 -11.529690 -15.710632 13.505147 4.111720 13.944122 -3.360450 -32.051897 -2.166686 13.422339 52.007197 -0.104761 10.387632 0.855568 0.489360 -0.321680 0.639170 17.756582 -10.099492 2.175916 -12.894325 6.287940 -14.576620 6.674098 -11.625722 48.176853 -1.004586 -7.750421 1.845392 -0.033010 0.194430 0.212930 -2.303380 -3.765216 -8.156263 -4.668167 5.382573 40.700805 0.281119 7.646509 15.418117 2.731161 -3.807952 -11.720773 -10.793515 2.505108 44.535975 0.935860 -1.329570 -18.976490 -5.130252 -13.576923 4.968115 -4.323650 -0.160738 -9.449683 107.931187 -35.629902 -53.840618 -3.664974 2.560708 1.097840 -0.009420 -0.093460 0.071000 -0.666647 22.117181 7.349663 -7.033899 8.142317 -15.402462 -83.351296 42.416473 -37.682368 1.546143 -1.058078 -0.513700 0.341330 0.120710 -0.588080 
0.320700 16.456330 -0.792120 -8.453995 15.424284 -10.613236 -15.745232 13.516220 4.203759 13.221228 -3.706523 -32.883112 -2.117151 13.443197 52.341588 -0.025181 10.353910 0.872138 0.547420 -0.240910 0.652870 17.728039 -10.095012 2.082267 -13.679103 6.072058 -15.096650 5.537693 -11.057383 48.288506 -0.983291 -7.656173 1.870062 -0.013910 0.159020 0.223600 -2.205461 -3.901705 -8.137585 -5.663310 5.886561 39.894105 0.951145 7.703213 15.252049 2.631273 -3.947756 -11.777869 -11.151824 2.872684 44.496700 0.848290 -1.070660 -17.779200 -4.966284 -13.452037 5.063016 -4.162971 -0.193828 -9.291247 108.004437 -35.122226 -52.943236 -3.628253 2.653523 1.051010 -0.019830 -0.077440 0.106160 -0.620329 22.241370 7.331010 -8.113164 7.926836 -15.034421 -83.974442 42.096142 -37.665937 1.576666 -1.142414 -0.450590 0.286020 0.060180 -0.561960 
0.317140 16.446400 -0.798710 -7.906775 14.977065 -10.103311 -15.781465 13.575061 4.246711 12.670618 -3.869296 -33.243427 -2.045440 13.396109 52.307528 -0.002106 10.301433 0.898624 0.546180 -0.232420 0.654460 17.690783 -10.095652 2.005945 -14.123650 5.902257 -15.271306 4.620539 -10.497717 48.022177 -0.934163 -7.512672 1.927723 -0.017410 0.151650 0.210950 -2.092272 -4.061540 -8.105602 -6.712064 6.484877 39.374965 1.641636 7.911162 15.100580 2.703306 -3.755362 -11.924903 -10.761811 2.925657 44.580401 0.043940 -0.597210 -16.794590 -5.145347 -13.684645 5.260303 -4.450585 0.150754 -9.325216 108.176736 -35.007226 -52.857763 -3.626299 2.660217 1.028220 -0.012850 -0.083060 0.109570 -0.538180 22.574243 7.446842 -8.382885 7.791938 -14.970362 -83.759582 41.977286 -37.362384 1.588429 -1.158776 -0.441340 0.276450 0.044490 -0.559550 
0.315980 16.434560 -0.804860 -7.814332 14.739031 -9.566471 -15.800197 13.514837 4.329281 12.470240 -4.098310 -34.151408 -1.864937 13.440967 52.890805 0.032894 10.381279 0.875589 0.539250 -0.239510 0.657920 17.687040 -10.065495 1.982380 -14.277554 5.848746 -15.693628 4.377978 -10.381505 47.961250 -0.913200 -7.474233 1.940940 -0.026840 0.147630 0.212880 -2.051746 -4.060636 -8.135194 -6.740746 6.610308 38.726915 1.886805 8.002260 14.873969 2.855673 -3.526656 -12.064791 -10.276850 2.793872 44.634267 -0.748110 -0.300510 -15.934210 -5.467959 -13.902594 5.502268 -5.139212 0.059110 -9.071841 108.234907 -36.302519 -54.426662 -3.628565 2.638023 1.010780 -0.003910 -0.087030 0.105850 -0.450615 22.695522 7.459121 -8.051334 8.061610 -14.903197 -82.838599 41.848174 -36.623527 1.593690 -1.171105 -0.432440 0.262090 0.040340 -0.559250 
0.315520 16.425040 -0.809490 -7.750791 14.391692 -9.261341 -15.801768 13.495665 4.350019 12.269619 -4.168980 -34.608807 -1.314655 13.236291 53.333632 0.070060 10.352191 0.883548 0.547180 -0.207680 0.656740 17.688716 -10.070742 1.982422 -14.341546 5.832659 -16.021589 4.172704 -10.279286 47.937046 -0.919925 -7.425557 1.963676 -0.032510 0.126550 0.216270 -2.049757 -4.025444 -8.153605 -6.582172 6.608708 38.258996 1.802227 8.050954 14.655789 2.969530 -3.426041 -12.217622 -10.300634 2.868364 45.369987 -0.958580 -0.053370 -16.615280 -5.893991 -14.132753 5.666807 -5.912716 -0.398219 -9.060853 108.506692 -36.377167 -54.840434 -3.610567 2.625687 1.006330 -0.016710 -0.058180 0.110470 -0.211930 22.786001 7.514215 -7.498293 8.132219 -14.824339 -82.399115 42.219644 -36.543021 1.594456 -1.146150 -0.402670 0.253950 0.023510 -0.544800 
